<svg width="50" height="50" viewBox="0 0 50 50" fill="none" xmlns="http://www.w3.org/2000/svg">
<path fill-rule="evenodd" clip-rule="evenodd" d="M0 6.25035C0 4.59266 0.823154 3.00285 2.28838 1.83069C3.7536 0.658517 5.74087 0 7.81301 0H42.1893C44.2611 0.000497187 46.2477 0.659234 47.7125 1.83135C49.1772 3.00346 50 4.59298 50 6.25035V13.1251C50 13.4565 49.8354 13.7744 49.5425 14.0087C49.2495 14.2431 48.8522 14.3748 48.4379 14.3748C48.0236 14.3748 47.6262 14.2431 47.3333 14.0087C47.0403 13.7744 46.8757 13.4565 46.8757 13.1251V6.25035C46.8757 5.25578 46.3819 4.30195 45.5028 3.59868C44.6237 2.89542 43.4314 2.50033 42.1882 2.50033H7.81184C6.56862 2.50033 5.37632 2.89542 4.49723 3.59868C3.61813 4.30195 3.12427 5.25578 3.12427 6.25035V43.7506C3.12427 44.7452 3.61813 45.699 4.49723 46.4023C5.37632 47.1055 6.56862 47.5006 7.81184 47.5006H42.1882C43.4314 47.5006 44.6237 47.1055 45.5028 46.4023C46.3819 45.699 46.8757 44.7452 46.8757 43.7506V36.8749C46.8757 36.5435 47.0403 36.2256 47.3333 35.9912C47.6262 35.7569 48.0236 35.6252 48.4379 35.6252C48.8522 35.6252 49.2495 35.7569 49.5425 35.9912C49.8354 36.2256 50 36.5435 50 36.8749V43.7506C49.9997 45.408 49.1766 46.9974 47.7116 48.1693C46.2467 49.3413 44.2599 49.9998 42.1882 50H7.81184C5.74031 49.9995 3.75382 49.3409 2.28914 48.169C0.824452 46.9971 0.00148187 45.4078 0.00117125 43.7506L0 6.25035Z" fill="url(#paint0_linear_359_722)"/>
<mask id="path-2-inside-1_359_722" fill="white">
<path fill-rule="evenodd" clip-rule="evenodd" d="M39.521 17.8661C38.9116 18.3545 38.9116 19.1458 39.521 19.6342L44.6668 23.7499H20.3137C19.8992 23.7499 19.5018 23.8816 19.2087 24.1161C18.9156 24.3505 18.751 24.6685 18.751 25.0001C18.751 25.3316 18.9156 25.6496 19.2087 25.8841C19.5018 26.1185 19.8992 26.2502 20.3137 26.2502H44.6656L39.521 30.3659C39.3759 30.4819 39.2608 30.6197 39.1822 30.7713C39.1036 30.9229 39.0632 31.0855 39.0631 31.2496C39.0631 31.4137 39.1034 31.5763 39.1819 31.728C39.2604 31.8796 39.3754 32.0174 39.5204 32.1335C39.6655 32.2496 39.8377 32.3417 40.0272 32.4046C40.2168 32.4674 40.4199 32.4998 40.6251 32.4999C40.8303 32.4999 41.0335 32.4676 41.2231 32.4048C41.4126 32.3421 41.5849 32.25 41.73 32.134L49.5431 25.8846C50.1524 25.3971 50.1524 24.6049 49.5431 24.1165L41.73 17.867C41.585 17.7509 41.4127 17.6587 41.2231 17.5958C41.0335 17.533 40.8302 17.5006 40.625 17.5006C40.4197 17.5006 40.2164 17.533 40.0268 17.5958C39.8372 17.6587 39.6649 17.7509 39.5199 17.867L39.521 17.8661Z"/>
</mask>
<path fill-rule="evenodd" clip-rule="evenodd" d="M39.521 17.8661C38.9116 18.3545 38.9116 19.1458 39.521 19.6342L44.6668 23.7499H20.3137C19.8992 23.7499 19.5018 23.8816 19.2087 24.1161C18.9156 24.3505 18.751 24.6685 18.751 25.0001C18.751 25.3316 18.9156 25.6496 19.2087 25.8841C19.5018 26.1185 19.8992 26.2502 20.3137 26.2502H44.6656L39.521 30.3659C39.3759 30.4819 39.2608 30.6197 39.1822 30.7713C39.1036 30.9229 39.0632 31.0855 39.0631 31.2496C39.0631 31.4137 39.1034 31.5763 39.1819 31.728C39.2604 31.8796 39.3754 32.0174 39.5204 32.1335C39.6655 32.2496 39.8377 32.3417 40.0272 32.4046C40.2168 32.4674 40.4199 32.4998 40.6251 32.4999C40.8303 32.4999 41.0335 32.4676 41.2231 32.4048C41.4126 32.3421 41.5849 32.25 41.73 32.134L49.5431 25.8846C50.1524 25.3971 50.1524 24.6049 49.5431 24.1165L41.73 17.867C41.585 17.7509 41.4127 17.6587 41.2231 17.5958C41.0335 17.533 40.8302 17.5006 40.625 17.5006C40.4197 17.5006 40.2164 17.533 40.0268 17.5958C39.8372 17.6587 39.6649 17.7509 39.5199 17.867L39.521 17.8661Z" fill="url(#paint1_linear_359_722)"/>
<path d="M39.521 17.8661L64.538 49.0775L14.5043 -13.3455L39.521 17.8661ZM39.521 19.6342L14.5041 50.8457L14.5205 50.8588L14.5368 50.8719L39.521 19.6342ZM44.6668 23.7499V63.7499H158.719L69.651 -7.48775L44.6668 23.7499ZM18.751 25.0001H58.751H18.751ZM44.6656 26.2502L69.6533 57.4851L158.698 -13.7498H44.6656V26.2502ZM39.521 30.3659L64.5006 61.6072L64.5087 61.6007L39.521 30.3659ZM41.73 32.134L66.7096 63.3753L66.7154 63.3707L41.73 32.134ZM49.5431 25.8846L74.5284 57.1213L74.5307 57.1195L49.5431 25.8846ZM49.5431 24.1165L74.56 -7.09498L74.5442 -7.10762L74.5284 -7.12025L49.5431 24.1165ZM41.73 17.867L16.7286 49.0909L16.7366 49.0973L16.7447 49.1037L41.73 17.867ZM39.5199 17.867L14.5031 -13.3446L64.5213 49.0909L39.5199 17.867ZM14.5041 -13.3453C5.71784 -6.30287 -0.936012 5.0778 -0.936012 18.7502C-0.936012 32.4225 5.71784 43.8032 14.5041 50.8457L64.538 -11.5772C72.7148 -5.02317 79.064 5.71764 79.064 18.7502C79.064 31.7827 72.7148 42.5235 64.538 49.0775L14.5041 -13.3453ZM14.5368 50.8719L19.6826 54.9875L69.651 -7.48775L64.5052 -11.6034L14.5368 50.8719ZM44.6668 -16.2501H20.3137V63.7499H44.6668V-16.2501ZM20.3137 -16.2501C11.8234 -16.2501 2.3549 -13.6259 -5.77897 -7.11881L44.1963 55.3509C36.6486 61.3891 27.975 63.7499 20.3137 63.7499V-16.2501ZM-5.77897 -7.11881C-14.1445 -0.426466 -21.249 10.8122 -21.249 25.0001H58.751C58.751 38.5247 51.9757 49.1275 44.1963 55.3509L-5.77897 -7.11881ZM-21.249 25.0001C-21.249 39.1878 -14.1445 50.4265 -5.77897 57.1189L44.1963 -5.35081C51.9758 0.872679 58.751 11.4754 58.751 25.0001H-21.249ZM-5.77897 57.1189C2.35499 63.626 11.8236 66.2502 20.3137 66.2502V-13.7498C27.9749 -13.7498 36.6485 -11.389 44.1963 -5.35081L-5.77897 57.1189ZM20.3137 66.2502H44.6656V-13.7498H20.3137V66.2502ZM19.678 -4.98465L14.5334 -0.869001L64.5087 61.6007L69.6533 57.4851L19.678 -4.98465ZM14.5414 -0.875465C10.4138 2.42486 6.54008 6.82353 3.66682 12.3686L74.6976 49.174C71.9815 54.4158 68.338 58.5389 64.5006 61.6072L14.5414 -0.875465ZM3.66682 12.3686C0.766794 17.9654 -0.934628 24.4095 -0.93689 31.2363L79.0631 31.2629C79.061 37.7614 77.4405 43.8804 74.6976 49.174L3.66682 12.3686ZM-0.93689 31.2363C-0.939154 38.0632 0.75803 44.5091 3.65524 50.1089L74.7085 13.3471C77.4488 18.6434 79.0653 24.7643 79.0631 31.2629L-0.93689 31.2363ZM3.65524 50.1089C6.52559 55.6567 10.3976 60.0586 14.5247 63.3619L64.5162 0.905132C68.3532 3.97632 71.9951 8.10256 74.7085 13.3471L3.65524 50.1089ZM14.5247 63.3619C18.6412 66.6569 23.0839 68.9279 27.4368 70.3714L52.6177 -5.56225C56.5915 -4.24446 60.6898 -2.1576 64.5162 0.905132L14.5247 63.3619ZM27.4368 70.3714C31.7965 71.8172 36.2551 72.4989 40.6166 72.4999L40.6336 -7.50014C44.5847 -7.4993 48.6371 -6.88228 52.6177 -5.56225L27.4368 70.3714ZM40.6166 72.4999C44.9786 72.5008 49.4372 71.8208 53.7965 70.3773L28.6496 -5.56764C32.6298 -6.88554 36.682 -7.50098 40.6336 -7.50014L40.6166 72.4999ZM53.7965 70.3773C58.1489 68.9362 62.5919 66.6678 66.7096 63.3753L16.7505 0.892673C20.578 -2.16768 24.6764 -4.25203 28.6496 -5.56764L53.7965 70.3773ZM66.7154 63.3707L74.5284 57.1213L24.5577 -5.35211L16.7447 0.897308L66.7154 63.3707ZM74.5307 57.1195C83.3504 50.0638 90.0001 38.6669 90.0001 25.0009C90.0001 11.3395 83.3557 -0.0449333 74.56 -7.09498L24.5261 55.3279C16.3398 48.7663 10.0001 38.0222 10.0001 25.0009C10.0001 11.9749 16.3451 1.21786 24.5554 -5.35028L74.5307 57.1195ZM74.5284 -7.12025L66.7154 -13.3697L16.7447 49.1037L24.5577 55.3531L74.5284 -7.12025ZM66.7315 -13.3568C62.6129 -16.6546 58.1676 -18.9273 53.8123 -20.3714L28.6339 55.5631C24.6578 54.2447 20.557 52.1564 16.7286 49.0909L66.7315 -13.3568ZM53.8123 -20.3714C49.4504 -21.8177 44.9892 -22.4994 40.625 -22.4994V57.5006C36.6712 57.5006 32.6165 56.8837 28.6339 55.5631L53.8123 -20.3714ZM40.625 -22.4994C36.2607 -22.4994 31.7995 -21.8177 27.4376 -20.3714L52.616 55.5631C48.6334 56.8837 44.5787 57.5006 40.625 57.5006V-22.4994ZM27.4376 -20.3714C23.0823 -18.9273 18.637 -16.6546 14.5184 -13.3568L64.5213 49.0909C60.6929 52.1564 56.5921 54.2447 52.616 55.5631L27.4376 -20.3714ZM64.5366 49.0786L64.5377 49.0777L14.5043 -13.3455L14.5031 -13.3446L64.5366 49.0786Z" fill="url(#paint2_linear_359_722)" mask="url(#path-2-inside-1_359_722)"/>
<defs>
<linearGradient id="paint0_linear_359_722" x1="51" y1="16.5" x2="41" y2="59.5" gradientUnits="userSpaceOnUse">
<stop stop-color="#242645"/>
<stop offset="1" stop-color="#1A81DA"/>
</linearGradient>
<linearGradient id="paint1_linear_359_722" x1="50.6251" y1="22.4504" x2="49.126" y2="35.88" gradientUnits="userSpaceOnUse">
<stop stop-color="#242645"/>
<stop offset="1" stop-color="#1A81DA"/>
</linearGradient>
<linearGradient id="paint2_linear_359_722" x1="34.3755" y1="17.5006" x2="34.3755" y2="32.4999" gradientUnits="userSpaceOnUse">
<stop stop-color="#242645"/>
<stop offset="1" stop-color="#1A81DA"/>
</linearGradient>
</defs>
</svg>
