<svg width="50" height="50" viewBox="0 0 50 50" fill="none" xmlns="http://www.w3.org/2000/svg">
<path d="M29.8253 43.9237C30.6413 43.3047 31.8936 43.2663 32.7648 43.8737C33.7232 44.5419 33.8575 45.7385 33.0649 46.5464C31.1109 48.7004 28.0879 49.9746 24.8713 50L24.2327 49.9771C21.2671 49.7942 18.5223 48.5512 16.7039 46.5464L16.5106 46.3171C15.9425 45.5253 16.1327 44.4812 17.0039 43.8737C17.9623 43.2055 19.3818 43.3188 20.1744 44.1267C20.5225 44.519 20.9355 44.8671 21.4008 45.1606C22.6446 45.9412 24.2064 46.271 25.7398 46.0769C27.2732 45.8828 28.6513 45.1808 29.5683 44.1267H29.5944L29.8253 43.9237ZM24.8974 0C33.926 0 44.0505 5.41135 45.1987 14.1003V18.6318C45.5907 20.2673 46.4912 21.7856 47.8081 23.0312C47.8861 23.1065 47.956 23.1875 48.0168 23.2732C49.2109 24.801 49.8958 26.5712 50 28.3986L49.9217 28.8605C50.0117 31.3613 49.0297 33.8056 47.1557 35.7457C44.7626 37.9406 41.491 39.3118 37.9706 39.5952C29.299 40.4044 20.548 40.4044 11.8764 39.5952C8.40748 39.2925 5.19285 37.9218 2.84786 35.7457C0.942988 33.8335 -0.0683909 31.4008 0.00359434 28.9045V28.5966C0.147058 26.7145 0.885898 24.8991 2.14332 23.3392L2.35207 23.1192C3.65975 21.8683 4.559 20.3522 4.96148 18.7198V14.1883L5.10578 13.9352C5.54448 13.2925 6.39891 12.9166 7.29379 12.9989C8.30052 13.0915 9.10896 13.741 9.26702 14.5843V19.1157C9.27717 19.1961 9.27717 19.2772 9.26702 19.3577C8.72369 21.6271 7.48181 23.736 5.66603 25.4729C4.96675 26.4119 4.57094 27.4888 4.51788 28.5966V29.0805C4.45995 30.6386 5.07155 32.1619 6.2401 33.37C7.86019 34.7807 10.0267 35.6548 12.3461 35.8337C20.7411 36.6036 29.2103 36.6036 37.6053 35.8337C39.9881 35.6493 42.2075 34.7334 43.8418 33.26C44.9529 32.0804 45.5351 30.6082 45.4857 29.1025V28.5966C45.4322 27.4851 45.0462 26.403 44.3637 25.4509C42.4723 23.7338 41.1574 21.6231 40.5539 19.3357C40.5438 19.2552 40.5438 19.1741 40.5539 19.0937V14.5403C39.7972 7.89705 31.9428 3.78355 25.1062 3.78355C22.1996 3.77791 19.3408 4.40692 16.8082 5.60933L16.498 5.7402C15.8604 5.95907 15.1308 5.92065 14.5244 5.62358C13.817 5.277 13.3894 4.63332 13.4086 3.94376C13.4277 3.2542 13.8905 2.62806 14.6163 2.30972C17.7545 0.815179 21.2931 0.0202068 24.8974 0Z" fill="url(#paint0_linear_746_6)"/>
<defs>
<linearGradient id="paint0_linear_746_6" x1="25" y1="0" x2="25" y2="50" gradientUnits="userSpaceOnUse">
<stop stop-color="#242645"/>
<stop offset="1" stop-color="#1A81DA"/>
</linearGradient>
</defs>
</svg>
