<svg width="50" height="37" viewBox="0 0 50 37" fill="none" xmlns="http://www.w3.org/2000/svg">
<path d="M49.9885 13.04C50.1008 9.6163 49.3898 6.21826 47.9216 3.16135C46.9254 1.90703 45.5429 1.06056 44.015 0.769439C37.6952 0.165541 31.3492 -0.0819771 25.0043 0.0279454C18.6824 -0.0869662 12.3593 0.152565 6.06167 0.74552C4.81659 0.984034 3.66436 1.59906 2.74558 2.51554C0.701412 4.50083 0.474282 7.89735 0.247153 10.7676C-0.0823843 15.9284 -0.0823843 21.1065 0.247153 26.2673C0.312862 27.8828 0.541271 29.4864 0.928541 31.0511C1.2024 32.2592 1.75648 33.3769 2.54116 34.3041C3.46618 35.2691 4.64525 35.9191 5.92539 36.1698C10.8221 36.8063 15.756 37.0701 20.6888 36.9591C28.6383 37.0787 35.6112 36.9591 43.856 36.2894C45.1676 36.0541 46.3798 35.4033 47.3311 34.4237C47.9669 33.7537 48.4419 32.9338 48.7166 32.0318C49.5288 29.4069 49.9278 26.6598 49.8976 23.8993C49.9885 22.5598 49.9885 14.4751 49.9885 13.04ZM19.8711 25.3344V10.5285L33.3172 17.9673C29.5468 20.1679 24.5727 22.6555 19.8711 25.3344Z" fill="#FEB824"/>
</svg>
